<?xml version="1.0" standalone="no"?><!DOCTYPE svg PUBLIC "-//W3C//DTD SVG 1.1//EN" "http://www.w3.org/Graphics/SVG/1.1/DTD/svg11.dtd"><svg t="1604655051450" class="icon" viewBox="0 0 1024 1024" version="1.1" xmlns="http://www.w3.org/2000/svg" p-id="2485" xmlns:xlink="http://www.w3.org/1999/xlink" width="200" height="200"><defs><style type="text/css"></style></defs><path d="M955.706024 173.758561C955.706024 117.31078 909.784195 71.387065 853.336331 71.387065L850.762519 71.387065 363.228368 160.029949C308.062521 161.510477 263.634912 206.846478 263.634912 262.364285L263.634912 729.760973C242.354016 715.042735 216.571882 706.392312 188.795824 706.392312 116.06214 706.392312 56.888889 765.563518 56.888889 838.29905 56.888889 911.034582 116.062139 970.205788 188.795824 970.205788 261.529509 970.205788 320.702759 911.034582 320.702759 838.29905L320.702759 272.144174C320.702759 234.525685 368.578418 217.06153 368.578418 217.06153L855.601129 128.511545C879.534069 129.69577 898.639152 149.537178 898.639152 173.759539L898.639152 626.389094C877.359235 611.670858 851.576124 603.020433 823.800067 603.020433 751.065404 603.020433 691.893131 662.191639 691.893131 734.927171 691.893131 807.662703 751.064425 866.833909 823.800067 866.833909 896.535706 866.833909 955.706024 807.660747 955.706024 734.926193L955.706024 173.758561 955.706024 173.758561Z" p-id="2486"></path></svg>